<svg width="473" height="99" viewBox="0 0 473 99" fill="none" xmlns="http://www.w3.org/2000/svg">
<path d="M85.2081 95.774C80.6215 95.774 76.4935 94.7707 72.8241 92.764C69.1548 90.7 66.2595 87.8047 64.1381 84.078C62.0741 80.3513 61.0421 76.0513 61.0421 71.178C61.0421 66.3047 62.1028 62.0047 64.2241 58.278C66.4028 54.5513 69.3555 51.6847 73.0821 49.678C76.8088 47.614 80.9655 46.582 85.5521 46.582C90.1388 46.582 94.2955 47.614 98.0221 49.678C101.749 51.6847 104.673 54.5513 106.794 58.278C108.973 62.0047 110.062 66.3047 110.062 71.178C110.062 76.0513 108.944 80.3513 106.708 84.078C104.529 87.8047 101.548 90.7 97.7641 92.764C94.0375 94.7707 89.8521 95.774 85.2081 95.774ZM85.2081 85.282C87.3868 85.282 89.4221 84.766 91.3141 83.734C93.2635 82.6447 94.8115 81.0393 95.9581 78.918C97.1048 76.7967 97.6781 74.2167 97.6781 71.178C97.6781 66.6487 96.4741 63.18 94.0661 60.772C91.7155 58.3067 88.8201 57.074 85.3801 57.074C81.9401 57.074 79.0448 58.3067 76.6941 60.772C74.4008 63.18 73.2541 66.6487 73.2541 71.178C73.2541 75.7073 74.3721 79.2047 76.6081 81.67C78.9015 84.078 81.7681 85.282 85.2081 85.282ZM133.686 95.774C129.787 95.774 126.29 95.086 123.194 93.71C120.098 92.2767 117.633 90.356 115.798 87.948C114.021 85.54 113.046 82.874 112.874 79.95H125C125.229 81.7847 126.118 83.304 127.666 84.508C129.271 85.712 131.249 86.314 133.6 86.314C135.893 86.314 137.671 85.8553 138.932 84.938C140.251 84.0207 140.91 82.8453 140.91 81.412C140.91 79.864 140.107 78.7173 138.502 77.972C136.954 77.1693 134.46 76.3093 131.02 75.392C127.465 74.532 124.541 73.6433 122.248 72.726C120.012 71.8087 118.063 70.404 116.4 68.512C114.795 66.62 113.992 64.0687 113.992 60.858C113.992 58.2207 114.737 55.8127 116.228 53.634C117.776 51.4553 119.955 49.7353 122.764 48.474C125.631 47.2127 128.985 46.582 132.826 46.582C138.502 46.582 143.031 48.0153 146.414 50.882C149.797 53.6913 151.66 57.504 152.004 62.32H140.48C140.308 60.428 139.505 58.9373 138.072 57.848C136.696 56.7013 134.833 56.128 132.482 56.128C130.303 56.128 128.612 56.5293 127.408 57.332C126.261 58.1347 125.688 59.2527 125.688 60.686C125.688 62.2913 126.491 63.524 128.096 64.384C129.701 65.1867 132.195 66.018 135.578 66.878C139.018 67.738 141.856 68.6267 144.092 69.544C146.328 70.4613 148.249 71.8947 149.854 73.844C151.517 75.736 152.377 78.2587 152.434 81.412C152.434 84.164 151.66 86.6293 150.112 88.808C148.621 90.9867 146.443 92.7067 143.576 93.968C140.767 95.172 137.47 95.774 133.686 95.774ZM172.895 57.246V80.294C172.895 81.8993 173.268 83.0747 174.013 83.82C174.816 84.508 176.135 84.852 177.969 84.852H183.559V95H175.991C165.843 95 160.769 90.0693 160.769 80.208V57.246H155.093V47.356H160.769V35.574H172.895V47.356H183.559V57.246H172.895ZM269.017 34.972L252.247 95H238.057L226.791 52.258L215.009 95L200.905 95.086L184.737 34.972H197.637L208.215 81.584L220.427 34.972H233.843L245.367 81.326L256.031 34.972H269.017ZM294.595 95.774C290.008 95.774 285.88 94.7707 282.211 92.764C278.541 90.7 275.646 87.8047 273.525 84.078C271.461 80.3513 270.429 76.0513 270.429 71.178C270.429 66.3047 271.489 62.0047 273.611 58.278C275.789 54.5513 278.742 51.6847 282.469 49.678C286.195 47.614 290.352 46.582 294.939 46.582C299.525 46.582 303.682 47.614 307.409 49.678C311.135 51.6847 314.059 54.5513 316.181 58.278C318.359 62.0047 319.449 66.3047 319.449 71.178C319.449 76.0513 318.331 80.3513 316.095 84.078C313.916 87.8047 310.935 90.7 307.151 92.764C303.424 94.7707 299.239 95.774 294.595 95.774ZM294.595 85.282C296.773 85.282 298.809 84.766 300.701 83.734C302.65 82.6447 304.198 81.0393 305.345 78.918C306.491 76.7967 307.065 74.2167 307.065 71.178C307.065 66.6487 305.861 63.18 303.453 60.772C301.102 58.3067 298.207 57.074 294.767 57.074C291.327 57.074 288.431 58.3067 286.081 60.772C283.787 63.18 282.641 66.6487 282.641 71.178C282.641 75.7073 283.759 79.2047 285.995 81.67C288.288 84.078 291.155 85.282 294.595 85.282ZM336.88 54.752C338.428 52.2293 340.435 50.2513 342.9 48.818C345.423 47.3847 348.29 46.668 351.5 46.668V59.31H348.318C344.534 59.31 341.668 60.1987 339.718 61.976C337.826 63.7533 336.88 66.8493 336.88 71.264V95H324.84V47.356H336.88V54.752ZM384.378 95L368.21 74.704V95H356.17V31.36H368.21V67.566L384.206 47.356H399.858L378.874 71.264L400.03 95H384.378ZM421.185 95.774C417.286 95.774 413.789 95.086 410.693 93.71C407.597 92.2767 405.131 90.356 403.297 87.948C401.519 85.54 400.545 82.874 400.373 79.95H412.499C412.728 81.7847 413.617 83.304 415.165 84.508C416.77 85.712 418.748 86.314 421.099 86.314C423.392 86.314 425.169 85.8553 426.431 84.938C427.749 84.0207 428.409 82.8453 428.409 81.412C428.409 79.864 427.606 78.7173 426.001 77.972C424.453 77.1693 421.959 76.3093 418.519 75.392C414.964 74.532 412.04 73.6433 409.747 72.726C407.511 71.8087 405.561 70.404 403.899 68.512C402.293 66.62 401.491 64.0687 401.491 60.858C401.491 58.2207 402.236 55.8127 403.727 53.634C405.275 51.4553 407.453 49.7353 410.263 48.474C413.129 47.2127 416.483 46.582 420.325 46.582C426.001 46.582 430.53 48.0153 433.913 50.882C437.295 53.6913 439.159 57.504 439.503 62.32H427.979C427.807 60.428 427.004 58.9373 425.571 57.848C424.195 56.7013 422.331 56.128 419.981 56.128C417.802 56.128 416.111 56.5293 414.907 57.332C413.76 58.1347 413.187 59.2527 413.187 60.686C413.187 62.2913 413.989 63.524 415.595 64.384C417.2 65.1867 419.694 66.018 423.077 66.878C426.517 67.738 429.355 68.6267 431.591 69.544C433.827 70.4613 435.747 71.8947 437.353 73.844C439.015 75.736 439.875 78.2587 439.933 81.412C439.933 84.164 439.159 86.6293 437.611 88.808C436.12 90.9867 433.941 92.7067 431.075 93.968C428.265 95.172 424.969 95.774 421.185 95.774Z" fill="#0E0E0E"/>
<path d="M13 70V56L24.5556 61.4194H27.4444L39 56V70L27.4444 64.129H24.5556L13 70Z" fill="#0E0E0E"/>
<rect y="33" width="11" height="62" fill="#0E0E0E"/>
<rect x="41" y="33" width="11" height="62" fill="#0E0E0E"/>
</svg>
